<?xml version="1.0" encoding="utf-8"?>
<svg version="1.1" xmlns:xlink="http://www.w3.org/1999/xlink" width="115px" height="40px" xmlns="http://www.w3.org/2000/svg">
  <defs>
    <mask fill="white" id="clip3">
      <path d="M 0 35  L 0 5  C 0 2.2  2.81111111111111 0  6.38888888888889 0  L 108.611111111111 0  C 112.188888888889 0  115 2.2  115 5  L 115 24  L 115 35  C 115 37.8  112.188888888889 40  108.611111111111 40  L 6.38888888888889 40  C 2.81111111111111 40  0 37.8  0 35  Z " fill-rule="evenodd" />
    </mask>
  </defs>
  <g transform="matrix(1 0 0 1 -85 -96 )">
    <path d="M 0 35  L 0 5  C 0 2.2  2.81111111111111 0  6.38888888888889 0  L 108.611111111111 0  C 112.188888888889 0  115 2.2  115 5  L 115 24  L 115 35  C 115 37.8  112.188888888889 40  108.611111111111 40  L 6.38888888888889 40  C 2.81111111111111 40  0 37.8  0 35  Z " fill-rule="nonzero" fill="#ffffff" stroke="none" transform="matrix(1 0 0 1 85 96 )" />
    <path d="M 0 35  L 0 5  C 0 2.2  2.81111111111111 0  6.38888888888889 0  L 108.611111111111 0  C 112.188888888889 0  115 2.2  115 5  L 115 24  L 115 35  C 115 37.8  112.188888888889 40  108.611111111111 40  L 6.38888888888889 40  C 2.81111111111111 40  0 37.8  0 35  Z " stroke-width="2" stroke="#797979" fill="none" transform="matrix(1 0 0 1 85 96 )" mask="url(#clip3)" />
  </g>
</svg>